<svg height="512" viewBox="0 0 512 512" width="512" xmlns="http://www.w3.org/2000/svg"><g id="Cannabis_Medical-2" data-name="Cannabis Medical"><g id="Glyph"><path d="m313.8 495.182a24.009 24.009 0 0 1 -17.771-23.182 12.075 12.075 0 0 0 -14.894-11.715 146.626 146.626 0 0 1 -47.053 3.238c-16.717-1.662-27.283-19.667-18.159-36.3a125.357 125.357 0 0 1 8.189-12.949 8.01 8.01 0 0 0 -3.139-11.968c-19.681-9.133-32.779-21.18-39.071-31.191-14.945-23.777 1.618-44.636 21.089-42.22l5.395.675a7.994 7.994 0 0 0 8.614-10.362 208.72 208.72 0 0 1 -8.846-42.5c-1.943-19.229 18.522-32.673 35.371-23.48 9.109 4.965 18.122 11.9 27.131 20.912a7.987 7.987 0 0 0 13.412-3.96 401.226 401.226 0 0 1 12.819-43.817c5.333-19.556 25.93-17.6 26.07-17.647 1.494.734 16.078 2.511 20.219 17.643 4.927 14.391 9.45 28.431 12.87 43.776a7.987 7.987 0 0 0 13.409 3.96c9-8.988 18-15.912 27.09-20.87 16.879-9.2 37.3 4.289 35.366 23.481a208.231 208.231 0 0 1 -6.2 33.541 14.669 14.669 0 0 0 14.2 18.473h.075a23.744 23.744 0 0 1 23.953 23.28h40.061a8 8 0 0 0 8-8v-176a8 8 0 0 0 -8-8h-152v-152a8 8 0 0 0 -8-8h-176a8 8 0 0 0 -8 8v152h-152a8 8 0 0 0 -8 8v176a8 8 0 0 0 8 8h152v152a8 8 0 0 0 8 8h143.455a8.574 8.574 0 0 0 8.574-8.574c-.039-.114-.245-6.637-6.229-8.244z"/><path d="m439.037 344.776-47.02 5.878a194.992 194.992 0 0 0 23.972-75.554 8.005 8.005 0 0 0 -11.789-7.828c-18.673 10.179-38.05 31.39-57.8 63.222.056-41.342-7.936-68.552-18.566-99.552-1.354-5.979-7.685-6.183-7.8-6.227a8 8 0 0 0 -7.8 6.226c-10.7 31.213-18.623 59.019-18.568 99.552-19.752-31.832-39.128-53.041-57.8-63.221a8 8 0 0 0 -11.796 7.828 194.975 194.975 0 0 0 23.972 75.555l-47.021-5.878a8.008 8.008 0 0 0 -8.652 5.629c-3.646 12.1 21.993 40.238 70.768 47.9a104.368 104.368 0 0 0 -33.186 36.612c-3.7 6.744.608 12.173 5.716 12.681 23.563 2.345 54.947-2.487 76.362-17.845v42.246a8 8 0 0 0 16 0v-42.184c30.338 22.017 74.195 18 76.363 17.786a8 8 0 0 0 5.894-12.355 104.484 104.484 0 0 0 -33.365-36.938c41.321-6.5 59.307-24.476 65.745-33.142 11.108-14.951 2.219-21.121-3.629-20.391z"/></g></g></svg>